<?xml version="1.0" encoding="utf-8"?>
<!DOCTYPE svg PUBLIC "-//W3C//DTD SVG 1.1//EN" "http://www.w3.org/Graphics/SVG/1.1/DTD/svg11.dtd">
<svg version="1.1" id="Ebene_1" xmlns="http://www.w3.org/2000/svg" xmlns:xlink="http://www.w3.org/1999/xlink" x="0px" y="0px"
	 width="16px" height="16px" viewBox="0 0 16 16" enable-background="new 0 0 16 16" xml:space="preserve">
<g id="info_1_">
	<g>
		<path fill="#FFFFFF" d="M8,16c-4.417,0-8-3.583-8-8s3.583-8,8-8s8,3.583,8,8S12.417,16,8,16z"/>
	</g>
</g>
<g id="info">
	<g>
		<path fill="#3366FF" d="M8,16c-4.417,0-8-3.583-8-8s3.583-8,8-8s8,3.583,8,8S12.417,16,8,16z M10.667,11.333
			c0-0.187-0.146-0.332-0.333-0.332H9.333V5.667c0-0.188-0.146-0.333-0.333-0.333H5.667c-0.188,0-0.333,0.146-0.333,0.333v1.667
			c0,0.188,0.146,0.333,0.333,0.333h1v3.334h-1c-0.188,0-0.333,0.146-0.333,0.332v1.668c0,0.187,0.146,0.332,0.333,0.332h4.667
			c0.188,0,0.333-0.146,0.333-0.332V11.333z M9.333,2c0-0.188-0.146-0.333-0.333-0.333H7C6.813,1.667,6.667,1.813,6.667,2v1.667
			C6.667,3.854,6.813,4,7,4h2c0.188,0,0.333-0.146,0.333-0.333V2z"/>
	</g>
</g>
</svg>
