<?xml version="1.0" standalone="no"?>
<!DOCTYPE svg PUBLIC "-//W3C//DTD SVG 20010904//EN"
 "http://www.w3.org/TR/2001/REC-SVG-20010904/DTD/svg10.dtd">
<svg version="1.0" xmlns="http://www.w3.org/2000/svg"
 width="700.000000pt" height="700.000000pt" viewBox="0 0 700.000000 700.000000"
 preserveAspectRatio="xMidYMid meet">
<metadata>
Created by potrace 1.11, written by Peter Selinger 2001-2013
</metadata>
<g transform="translate(0.000000,700.000000) scale(0.100000,-0.100000)"
fill="#000000" stroke="none">
<path d="M3890 6079 c-178 -13 -233 -31 -291 -97 -19 -21 -340 -493 -714
-1049 -374 -556 -683 -1009 -686 -1007 -4 2 -202 303 -439 670 -238 366 -444
673 -457 681 -53 35 -125 45 -358 50 -420 9 -538 -28 -478 -151 12 -22 270
-376 575 -786 304 -410 591 -796 636 -857 l83 -112 -672 -888 c-369 -488 -680
-901 -690 -917 -19 -31 -25 -82 -11 -102 30 -46 143 -64 395 -64 279 0 376 18
433 82 12 12 239 348 504 746 266 397 487 719 490 715 4 -5 310 -447 680 -983
369 -536 684 -988 699 -1004 14 -16 40 -35 58 -42 110 -47 511 -63 634 -25 75
24 116 61 130 117 5 22 9 493 9 1057 l0 1017 720 0 720 0 2 -799 3 -799 25
-27 c46 -49 111 -60 350 -60 235 0 300 10 351 52 l29 25 0 1868 0 1869 -27 20
c-57 46 -123 56 -348 56 -233 0 -312 -14 -357 -62 l-23 -25 -3 -724 -2 -724
-720 0 -720 0 0 1079 c0 764 -3 1087 -11 1110 -7 21 -24 38 -48 50 -70 36
-284 54 -471 40z m-220 -2616 c0 -1372 0 -1397 -19 -1378 -57 59 -1021 1379
-1017 1391 3 8 144 200 313 427 169 226 398 535 510 685 112 149 205 272 208
272 3 0 5 -629 5 -1397z"/>
</g>
</svg>
