<?xml version="1.0" encoding="utf-8"?>
<!DOCTYPE svg PUBLIC "-//W3C//DTD SVG 1.1//EN" "http://www.w3.org/Graphics/SVG/1.1/DTD/svg11.dtd">
<svg version="1.1" xmlns="http://www.w3.org/2000/svg" xmlns:xlink="http://www.w3.org/1999/xlink" x="0px" y="0px" width="16px"
	 height="16px" viewBox="0 0 16 16" enable-background="new 0 0 16 16" xml:space="preserve">
<g id="cross">
	<g>
		<path fill="#FF4000" d="M15.623,13.791l-1.832,1.832C13.549,15.865,13.212,16,12.875,16c-0.336,0-0.673-0.135-0.915-0.377
			L8,11.663l-3.959,3.96C3.798,15.865,3.461,16,3.125,16c-0.336,0-0.673-0.135-0.916-0.377l-1.832-1.832
			C0.135,13.549,0,13.212,0,12.875c0-0.336,0.135-0.673,0.377-0.915L4.337,8l-3.96-3.959C0.135,3.798,0,3.461,0,3.125
			c0-0.336,0.135-0.673,0.377-0.916l1.832-1.832C2.451,0.135,2.788,0,3.125,0c0.337,0,0.673,0.135,0.916,0.377L8,4.337l3.96-3.96
			C12.202,0.135,12.539,0,12.875,0c0.337,0,0.674,0.135,0.916,0.377l1.832,1.832C15.865,2.451,16,2.788,16,3.125
			c0,0.337-0.135,0.673-0.377,0.916L11.663,8l3.96,3.96C15.865,12.202,16,12.539,16,12.875C16,13.212,15.865,13.549,15.623,13.791z"
			/>
	</g>
</g>
</svg>
