<?xml version="1.0" encoding="utf-8"?>
<!DOCTYPE svg PUBLIC "-//W3C//DTD SVG 1.1//EN" "http://www.w3.org/Graphics/SVG/1.1/DTD/svg11.dtd">
<svg version="1.1" id="Ebene_1" xmlns="http://www.w3.org/2000/svg" xmlns:xlink="http://www.w3.org/1999/xlink" x="0px" y="0px"
	 width="16px" height="16px" viewBox="0 0 16 16" enable-background="new 0 0 16 16" xml:space="preserve">
<g id="fail">
	<rect x="6" y="5.57" fill="#FFFF00" width="4" height="9"/>
	<g>
		<path fill="#FF4000" d="M15.857,14.312c0.197,0.349,0.188,0.776-0.019,1.125C15.634,15.786,15.259,16,14.857,16H1.142
			c-0.402,0-0.777-0.215-0.982-0.563s-0.214-0.776-0.018-1.125L7,1.739c0.196-0.366,0.58-0.598,1-0.598s0.805,0.232,1,0.598
			L15.857,14.312z M9.285,5.98c0-0.053-0.026-0.125-0.09-0.169C9.143,5.766,9.063,5.713,8.982,5.713H7.018
			c-0.081,0-0.161,0.054-0.215,0.098C6.741,5.855,6.714,5.945,6.714,5.998l0.152,4.082c0,0.115,0.134,0.205,0.304,0.205h1.652
			c0.16,0,0.294-0.09,0.303-0.205L9.285,5.98z M9.143,11.723c0-0.161-0.125-0.295-0.285-0.295H7.142
			c-0.16,0-0.285,0.134-0.285,0.295v1.695c0,0.161,0.125,0.295,0.285,0.295h1.715c0.16,0,0.285-0.134,0.285-0.295V11.723z"/>
	</g>
</g>
</svg>
