<?xml version="1.0" encoding="utf-8"?>
<!DOCTYPE svg PUBLIC "-//W3C//DTD SVG 1.1//EN" "http://www.w3.org/Graphics/SVG/1.1/DTD/svg11.dtd">
<svg version="1.1" xmlns="http://www.w3.org/2000/svg" xmlns:xlink="http://www.w3.org/1999/xlink" x="0px" y="0px" width="16px"
	 height="16px" viewBox="0 0 16 16" enable-background="new 0 0 16 16" xml:space="preserve">
<g id="help_x5F_icon">
	<g>
		<path fill="#3366FF" d="M8,16c-4.417,0-8-3.583-8-8c0-4.417,3.583-8,8-8c4.416,0,8,3.583,8,8C16,12.417,12.416,16,8,16z
			 M8.208,2.667c-1.698,0-2.968,0.729-3.864,2.219C4.249,5.031,4.292,5.219,4.427,5.323l1.375,1.042
			C5.854,6.406,5.927,6.428,6,6.428c0.093,0,0.198-0.042,0.26-0.126C6.75,5.678,6.958,5.489,7.156,5.344
			c0.177-0.125,0.521-0.25,0.896-0.25c0.667,0,1.281,0.427,1.281,0.885c0,0.542-0.281,0.813-0.917,1.104
			c-0.74,0.333-1.75,1.198-1.75,2.209v0.375C6.667,9.854,6.812,10,6.999,10h2c0.188,0,0.334-0.146,0.334-0.332
			c0-0.24,0.303-0.751,0.792-1.033C10.916,8.188,12,7.583,12,6C12,4.094,10,2.667,8.208,2.667z M9.333,11.001
			c0-0.188-0.146-0.334-0.334-0.334h-2c-0.188,0-0.333,0.146-0.333,0.334v2c0,0.187,0.145,0.332,0.333,0.332h2
			c0.188,0,0.334-0.146,0.334-0.332V11.001z"/>
	</g>
</g>
</svg>
