<?xml version="1.0" encoding="utf-8"?>
<!DOCTYPE svg PUBLIC "-//W3C//DTD SVG 1.1//EN" "http://www.w3.org/Graphics/SVG/1.1/DTD/svg11.dtd">
<svg version="1.1" id="Ebene_1" xmlns="http://www.w3.org/2000/svg" xmlns:xlink="http://www.w3.org/1999/xlink" x="0px" y="0px"
	 width="16px" height="16px" viewBox="0 0 16 16" enable-background="new 0 0 16 16" xml:space="preserve">
<g id="success">
	<g>
		<path fill="#33CC33" d="M15.71,6.835l-7.474,7.474l-1.403,1.403C6.647,15.898,6.389,16,6.131,16c-0.258,0-0.516-0.104-0.702-0.288
			l-1.404-1.403l-3.736-3.736C0.103,10.385,0,10.127,0,9.869s0.103-0.516,0.289-0.702l1.404-1.404
			c0.185-0.186,0.444-0.288,0.701-0.288c0.259,0,0.517,0.103,0.703,0.288l3.035,3.045l6.772-6.781
			c0.186-0.187,0.443-0.289,0.701-0.289s0.517,0.103,0.703,0.289l1.401,1.404C15.896,5.617,16,5.875,16,6.133
			C16,6.391,15.896,6.649,15.71,6.835z"/>
	</g>
</g>
</svg>
