<?xml version="1.0" encoding="utf-8"?>
<!DOCTYPE svg PUBLIC "-//W3C//DTD SVG 1.1//EN" "http://www.w3.org/Graphics/SVG/1.1/DTD/svg11.dtd">
<svg version="1.1" id="Ebene_1" xmlns="http://www.w3.org/2000/svg" xmlns:xlink="http://www.w3.org/1999/xlink" x="0px" y="0px"
	 width="16px" height="16px" viewBox="0 0 16 16" enable-background="new 0 0 16 16" xml:space="preserve">
<g>
	<path fill="#FFFFFF" d="M14.749,5.345l-6.542,6.539L6.98,13.112c-0.163,0.163-0.389,0.253-0.615,0.253
		c-0.226,0-0.451-0.09-0.614-0.253l-1.229-1.229l-3.269-3.27C1.09,8.452,1,8.226,1,8s0.09-0.452,0.253-0.614l1.229-1.229
		c0.161-0.162,0.389-0.253,0.614-0.253c0.226,0,0.452,0.091,0.613,0.253l2.656,2.665l5.925-5.934
		c0.162-0.163,0.387-0.252,0.613-0.252s0.453,0.09,0.615,0.252l1.23,1.229C14.908,4.279,15,4.505,15,4.731
		C15,4.957,14.908,5.183,14.749,5.345z"/>
</g>
</svg>
