<?xml version="1.0" encoding="UTF-8" standalone="no"?>
<svg
   xmlns="http://www.w3.org/2000/svg"
   height="24"
   viewBox="0 -960 864 864"
   width="24"
   fill="#000000"
>
  <path
     d="m 377.97959,-320.19592 h 110 v -153 h 153 v -110 h -153 v -153 h -110 v 153 h -153 v 110 h 153 z m -213,186 q -53,0 -89.499998,-36.5 -36.5,-36.5 -36.5,-89.5 v -536 q 0,-53 36.5,-89.5 36.499998,-36.5 89.499998,-36.5 h 536 q 53,0 89.5,36.5 36.5,36.5 36.5,89.5 v 536 q 0,53 -36.5,89.5 -36.5,36.5 -89.5,36.5 z m 0,-126 h 536 v -536 h -536 z m 0,-536 v 536 z"
     id="path2" />
</svg>
