<?xml version="1.0" encoding="UTF-8" standalone="no"?>
<svg
   xmlns="http://www.w3.org/2000/svg"
   height="24"
   viewBox="0 -960 924 924"
   width="24"
   fill="#ff9900"
>
  <path
     d="m 128.33556,-134.32267 q -53.000002,0 -89.500004,-36.5 -36.5000004,-36.5 -36.5000004,-89.5 v -456 q 0,-54 36.5000004,-90 36.500002,-36 89.500004,-36 h 213 l 95,95 h 308 q 54,0 90,36.5 36,36.5 36,89.5 h -486 l -95,-95 h -161 v 461 l 92,-286 h 703 l -93,289 q -20,61 -59,89.5 -39,28.5 -102,28.5 z m 135,-126 h 437 l 49,-155 h -437 z m 0,0 49,-155 z m -135,-361 v -95 z"
     id="path2"
     style="fill:#ff9900;fill-opacity:1" />
  <path
     style="fill:#ff9900;fill-opacity:1;stroke-width:1.25714"
     d="m 264.72526,-262.61535 c 0.34419,-0.89744 11.2809,-35.40587 24.30349,-76.68573 l 23.67744,-75.05424 h 217.90519 c 119.84788,0 217.68793,0.42427 217.42236,0.94286 -0.26565,0.5186 -11.18899,35.02206 -24.27421,76.67441 l -23.79131,75.73158 -217.93452,0.0113 c -178.11137,0.009 -217.82009,-0.28875 -217.30844,-1.62008 z"
     id="path835" />
</svg>
