<?xml version="1.0" encoding="UTF-8" standalone="no"?>
<svg
   xmlns="http://www.w3.org/2000/svg"
   height="24"
   viewBox="0 -960 888 888"
   width="24"
   fill="#ff9900"
>
  <path
     d="m 135.7551,-157.41224 q -52.999998,0 -89.499998,-36.5 -36.5,-36.5 -36.5,-89.5 v -456 q 0,-53 36.5,-89.5 36.5,-36.5 89.499998,-36.5 h 213 l 95,95 h 308 q 53,0 89.5,36.5 36.5,36.5 36.5,89.5 v 361 q 0,53 -36.5,89.5 -36.5,36.5 -89.5,36.5 z m 0,-126 h 616 v -361 h -360 l -95,-95 h -161 z m 0,0 v -456 z"
     id="path2"
     style="fill:#ff9900;fill-opacity:1" />
  <path
     style="fill:#ff9900;fill-opacity:1;stroke-width:0.0326531"
     d="M 3.6897959,12.130612 V 5.9918367 h 2.1634223 2.1634225 l 1.2731552,1.2734694 1.2731551,1.2734694 h 4.873627 4.873626 v 4.8653065 4.865306 H 12 3.6897959 Z"
     id="path835"
     transform="matrix(37,0,0,37,0,-960)" />
</svg>
