<?xml version="1.0" encoding="UTF-8" standalone="no"?>
<svg
   xmlns="http://www.w3.org/2000/svg"
   height="24"
   viewBox="0 -960 888 888"
   width="24"
   fill="#3399cc"
>
  <path
     d="m 842.96327,-396.45306 -277,277 q -18.29,18 -41.14,26.999999 -22.86,9 -46.86,9 -24,0 -46.86,-9 -22.85,-8.999999 -41.14,-26.999999 l -342.000005,-342 q -17,-17 -27,-39.88 -10,-22.88 -10,-48.12 v -277 q 0,-51.56 36.72,-88.28 36.72,-36.72 88.280005,-36.72 h 277 q 24.7,0 47.85,9.5 23.15,9.5 40.15,27.5 l 342,341 q 19,19 28,42 9,23 9,46.9 0,23.9 -9,47 -9,23.1 -28,41.1 z m -365,187 275,-275 -342,-341 h -274 v 275 z m -243.12,-460 q 24.12,0 41.12,-16.88 17,-16.88 17,-41 0,-24.12 -16.88,-41.12 -16.88,-17 -41,-17 -24.12,0 -41.12,16.88 -17,16.88 -17,41 0,24.12 16.88,41.12 16.88,17 41,17 z m 210.12,152 z"
     id="path2" />
</svg>
