<?xml version="1.0" encoding="utf-8"?>
<!DOCTYPE svg PUBLIC "-//W3C//DTD SVG 1.1//EN" "http://www.w3.org/Graphics/SVG/1.1/DTD/svg11.dtd">
<svg version="1.1" id="Ebene_1" xmlns="http://www.w3.org/2000/svg" xmlns:xlink="http://www.w3.org/1999/xlink" x="0px" y="0px"
	 width="16px" height="19px" viewBox="0 0 16 19" enable-background="new 0 0 16 19" xml:space="preserve">
<path fill="#333333" d="M15.671,8.659l-3.579,3.573l1.342,1.341L12.001,15c-1.954,1.955-4.938,2.232-7.151,0.768L1.617,19H0v-1.613
	l3.233-3.232C1.767,11.938,2.046,8.954,4,7l1.43-1.43l1.337,1.338l3.574-3.58c0.444-0.438,1.171-0.438,1.614,0
	c0.447,0.446,0.447,1.179,0,1.617l-3.57,3.581l2.089,2.088l3.584-3.569c0.443-0.449,1.164-0.449,1.612,0
	C16.107,7.49,16.107,8.213,15.671,8.659z"/>
</svg>
