<?xml version="1.0" encoding="utf-8"?>
<!DOCTYPE svg PUBLIC "-//W3C//DTD SVG 1.1//EN" "http://www.w3.org/Graphics/SVG/1.1/DTD/svg11.dtd">
<svg version="1.1" id="Ebene_1" xmlns="http://www.w3.org/2000/svg" xmlns:xlink="http://www.w3.org/1999/xlink" x="0px" y="0px"
	 width="16px" height="19px" viewBox="0 0 16 19" enable-background="new 0 0 16 19" xml:space="preserve">
<g>
	<path fill="#333333" d="M14.389,16.254c-1.174,0-1.483-1.064-2.541-1.064c-0.771,0-1.058,0.482-1.058,1.198
		c0,0.749,0.308,1.47,0.299,2.207v0.048c-0.106,0-0.213,0-0.318,0.012c-0.989,0.096-1.99,0.285-2.99,0.285
		c-0.685,0-1.396-0.268-1.396-1.053c0-1.06,1.068-1.369,1.068-2.542c0-1.048-0.828-1.613-1.818-1.613
		c-1.009,0-1.941,0.553-1.941,1.661c0,1.219,0.932,1.75,0.932,2.417c0,0.332-0.211,0.631-0.439,0.851
		C3.884,18.939,3.461,19,3.056,19c-0.785,0-1.574-0.107-2.354-0.233c-0.173-0.029-0.357-0.048-0.53-0.077l-0.125-0.018
		C0.03,18.66,0,18.66,0,18.654V8.808c0.039,0.025,0.607,0.097,0.703,0.113c0.78,0.126,1.569,0.233,2.354,0.233
		c0.405,0,0.828-0.062,1.129-0.34c0.229-0.22,0.439-0.519,0.439-0.858c0-0.659-0.932-1.19-0.932-2.41
		c0-1.107,0.932-1.664,1.953-1.664c0.979,0,1.806,0.569,1.806,1.616c0,1.174-1.068,1.481-1.068,2.536
		c0,0.792,0.711,1.059,1.396,1.059c1.104,0,2.202-0.249,3.297-0.309v0.023c-0.028,0.036-0.095,0.602-0.113,0.704
		c-0.126,0.773-0.231,1.566-0.231,2.35c0,0.405,0.058,0.829,0.335,1.125c0.225,0.232,0.521,0.447,0.856,0.447
		c0.666,0,1.19-0.935,2.416-0.935c1.101,0,1.66,0.935,1.66,1.94C16,15.434,15.436,16.254,14.389,16.254z"/>
</g>
</svg>
