<svg aria-hidden="true" style="position: absolute; width: 0; height: 0; overflow: hidden;" version="1.1" xmlns="http://www.w3.org/2000/svg" xmlns:xlink="http://www.w3.org/1999/xlink">
  <defs>
    <symbol id="icon-binoculars" viewBox="0 0 32 32">
      <path d="M2 0h12v2h-12zM18 0h12v2h-12zM29.75 10h-1.75v-8h-8v8h-8v-8h-8v8h-1.75c-1.238 0-2.25 1.012-2.25 2.25v17.5c0 1.238 1.012 2.25 2.25 2.25h9.5c1.238 0 2.25-1.012 2.25-2.25v-11.75h4v11.75c0 1.238 1.012 2.25 2.25 2.25h9.5c1.238 0 2.25-1.012 2.25-2.25v-17.5c0-1.238-1.012-2.25-2.25-2.25zM10.875 30h-7.75c-0.619 0-1.125-0.45-1.125-1s0.506-1 1.125-1h7.75c0.619 0 1.125 0.45 1.125 1s-0.506 1-1.125 1zM17 16h-2c-0.55 0-1-0.45-1-1s0.45-1 1-1h2c0.55 0 1 0.45 1 1s-0.45 1-1 1zM28.875 30h-7.75c-0.619 0-1.125-0.45-1.125-1s0.506-1 1.125-1h7.75c0.619 0 1.125 0.45 1.125 1s-0.506 1-1.125 1z"></path>
    </symbol>
  </defs>
</svg>
